<?xml version="1.0" standalone="no"?>
<!DOCTYPE svg PUBLIC "-//W3C//DTD SVG 20010904//EN"
 "http://www.w3.org/TR/2001/REC-SVG-20010904/DTD/svg10.dtd">
<svg version="1.0" xmlns="http://www.w3.org/2000/svg"
 width="605.000000pt" height="605.000000pt" viewBox="0 0 605.000000 605.000000"
 preserveAspectRatio="xMidYMid meet">
<metadata>
Created by potrace 1.11, written by Peter Selinger 2001-2013
</metadata>
<g transform="translate(0.000000,605.000000) scale(0.100000,-0.100000)"
fill="#000000" stroke="none">
<path d="M2801 4918 c-212 -21 -458 -88 -650 -179 -1008 -475 -1420 -1690
-908 -2679 57 -110 155 -261 222 -340 336 -395 747 -625 1260 -705 92 -15 421
-14 525 1 793 113 1431 679 1635 1449 106 398 79 839 -75 1225 -243 610 -789
1067 -1430 1195 -189 38 -404 50 -579 33z"/>
</g>
</svg>
